<?xml version="1.0" standalone="no"?>
<!DOCTYPE svg PUBLIC "-//W3C//DTD SVG 20010904//EN"
 "http://www.w3.org/TR/2001/REC-SVG-20010904/DTD/svg10.dtd">
<svg version="1.0" xmlns="http://www.w3.org/2000/svg"
 width="500.000000pt" height="500.000000pt" viewBox="0 0 500.000000 500.000000"
 preserveAspectRatio="xMidYMid meet">

<g transform="translate(0.000000,500.000000) scale(0.100000,-0.100000)"
fill="#000000" stroke="none">
<path d="M984 4046 c-12 -9 -27 -29 -32 -45 -11 -31 -12 -29 56 -156 20 -37
21 -139 3 -185 -35 -87 -163 -243 -232 -282 -232 -133 -303 -461 -145 -675 53
-73 105 -114 193 -156 64 -30 74 -32 183 -32 112 0 117 1 192 37 124 59 207
152 251 282 28 81 18 296 -13 296 -5 0 -24 -9 -42 -19 -109 -64 -263 -80 -355
-37 -60 29 -83 60 -60 84 13 12 26 13 74 6 102 -17 202 12 211 60 8 38 -9 67
-45 82 -33 14 -41 14 -106 -7 -63 -20 -72 -21 -96 -8 -14 8 -32 27 -39 41 -20
43 4 85 93 158 132 110 170 187 163 337 -4 104 -23 149 -81 195 -48 38 -137
51 -173 24z"/>
<path d="M661 3821 c-30 -30 -26 -64 9 -98 76 -70 89 -138 45 -232 -14 -30
-24 -55 -22 -57 2 -2 22 12 44 31 72 61 115 213 80 281 -40 76 -117 114 -156
75z"/>
<path d="M540 3543 c-38 -48 -138 -265 -166 -358 -32 -108 -43 -281 -25 -378
36 -185 167 -346 368 -451 177 -92 223 -154 243 -321 15 -134 12 -451 -4 -498
-29 -81 -72 -106 -210 -118 -119 -11 -156 -18 -156 -29 0 -14 48 -21 231 -30
114 -6 246 -6 355 0 179 10 224 16 224 31 0 10 -40 18 -156 28 -106 9 -150 30
-186 89 -21 33 -23 51 -26 182 -2 80 1 216 7 303 9 140 13 163 35 201 36 62
94 110 193 160 158 79 255 170 320 298 46 90 63 166 63 286 0 128 -20 228 -71
357 -35 88 -138 279 -146 271 -2 -1 15 -45 38 -97 117 -272 149 -545 86 -726
-57 -166 -199 -302 -377 -364 -52 -18 -87 -22 -180 -23 -101 0 -124 4 -190 27
-103 38 -172 81 -245 155 -143 143 -191 328 -150 582 17 104 80 302 126 392
32 64 32 72 -1 31z"/>
<path d="M3950 2560 c0 -47 2 -50 25 -50 23 0 25 3 25 50 0 47 -2 50 -25 50
-23 0 -25 -3 -25 -50z"/>
<path d="M3484 2586 c-11 -28 1 -51 27 -54 31 -4 53 20 44 48 -8 24 -62 29
-71 6z"/>
<path d="M3624 2586 c-12 -31 1 -51 32 -54 34 -3 49 16 39 49 -8 23 -63 26
-71 5z"/>
<path d="M2460 2395 l0 -185 35 0 c29 0 35 4 35 21 l0 20 26 -20 c18 -14 41
-21 71 -21 81 0 136 82 118 177 -4 22 -20 50 -40 70 -27 27 -40 33 -78 33 -30
0 -53 -7 -71 -21 l-26 -20 0 65 0 66 -35 0 -35 0 0 -185z m200 13 c44 -47 9
-138 -53 -138 -68 0 -103 86 -55 137 28 30 80 31 108 1z"/>
<path d="M2810 2395 l0 -185 29 0 29 0 4 96 c3 87 5 98 27 116 17 13 33 17 50
13 43 -10 51 -31 51 -132 l0 -93 35 0 35 0 0 100 c0 112 -12 149 -55 168 -35
16 -87 15 -111 -3 -31 -23 -34 -19 -34 45 l0 60 -30 0 -30 0 0 -185z"/>
<path d="M1886 2560 c-39 -12 -64 -37 -71 -72 -13 -59 21 -99 105 -123 45 -13
70 -34 70 -60 0 -47 -77 -59 -100 -15 -12 23 -80 29 -80 7 0 -42 67 -87 130
-87 73 0 119 39 120 101 0 50 -24 74 -99 101 -71 25 -93 47 -75 76 17 26 70
28 86 3 9 -15 23 -21 50 -21 43 0 42 -1 26 35 -20 45 -103 73 -162 55z"/>
<path d="M3780 2525 c0 -24 -5 -35 -15 -35 -10 0 -15 -10 -15 -30 0 -20 5 -30
15 -30 12 0 15 -16 15 -84 0 -104 13 -125 83 -133 l47 -6 0 32 c0 28 -3 31
-30 31 l-30 0 0 80 0 80 30 0 c27 0 30 3 30 30 0 27 -3 30 -30 30 -28 0 -30 3
-30 35 0 33 -2 35 -35 35 -33 0 -35 -2 -35 -35z"/>
<path d="M2120 2413 c1 -102 13 -153 45 -180 31 -27 82 -30 125 -8 27 14 30
14 30 0 0 -11 10 -15 35 -15 l35 0 0 140 0 140 -35 0 -35 0 0 -93 c0 -104 -13
-129 -67 -129 -48 0 -63 32 -63 133 l0 89 -35 0 -35 0 0 -77z"/>
<path d="M3188 2474 c-83 -44 -81 -206 2 -249 36 -19 87 -19 120 0 32 18 40
18 40 0 0 -10 10 -15 30 -15 l30 0 0 140 0 140 -30 0 c-20 0 -30 -5 -30 -15 0
-18 -8 -18 -40 0 -32 18 -88 18 -122 -1z m132 -64 c13 -13 20 -33 20 -60 0
-51 -27 -80 -73 -80 -41 0 -66 24 -73 71 -12 72 75 120 126 69z"/>
<path d="M3480 2316 c0 -166 -1 -175 -20 -181 -13 -4 -20 -15 -20 -31 0 -21 5
-24 33 -24 22 0 41 8 55 23 21 22 22 32 22 205 l0 182 -35 0 -35 0 0 -174z"/>
<path d="M3620 2350 l0 -140 35 0 35 0 0 140 0 140 -35 0 -35 0 0 -140z"/>
<path d="M4084 2467 c-30 -26 -37 -74 -15 -101 7 -8 41 -24 77 -36 47 -16 64
-26 64 -40 0 -34 -57 -41 -85 -10 -19 21 -75 28 -75 9 0 -68 136 -107 196 -56
20 17 27 33 27 57 0 40 -28 66 -89 81 -48 12 -69 31 -60 54 8 23 63 19 78 -5
8 -12 24 -20 40 -20 38 0 37 31 -3 64 -42 35 -116 37 -155 3z"/>
<path d="M2895 1890 c-4 -6 -4 -22 -1 -36 6 -21 12 -25 39 -22 28 3 32 7 32
33 0 26 -4 30 -32 33 -17 2 -34 -2 -38 -8z"/>
<path d="M3314 1886 c-12 -31 1 -51 32 -54 34 -3 49 16 39 49 -8 23 -63 26
-71 5z"/>
<path d="M2291 1860 c-78 -18 -124 -76 -128 -163 -3 -50 0 -69 19 -102 28 -48
94 -85 153 -85 53 0 122 36 147 78 l20 32 -37 0 c-25 0 -47 -8 -67 -25 -52
-44 -126 -28 -157 32 -6 12 -11 42 -11 67 0 95 94 144 169 88 29 -21 91 -31
91 -13 0 16 -42 61 -68 75 -38 19 -91 25 -131 16z"/>
<path d="M2560 1694 c0 -108 15 -154 56 -173 35 -15 86 -14 110 4 25 19 34 19
34 0 0 -10 10 -15 30 -15 l30 0 0 140 0 140 -29 0 -29 0 -4 -95 c-3 -107 -15
-128 -69 -128 -49 0 -59 22 -59 130 l0 93 -35 0 -35 0 0 -96z"/>
<path d="M2900 1650 l0 -140 30 0 30 0 0 140 0 140 -30 0 -30 0 0 -140z"/>
<path d="M3073 1778 c-12 -6 -27 -24 -34 -40 -21 -52 15 -95 98 -112 42 -9 60
-31 43 -51 -18 -21 -57 -19 -77 5 -23 26 -73 27 -73 2 0 -10 12 -29 26 -43 22
-20 36 -24 91 -24 56 0 67 3 84 24 24 30 24 76 0 100 -10 10 -44 26 -76 35
-48 15 -56 20 -53 39 4 31 51 35 75 8 21 -25 73 -29 73 -5 0 8 -13 29 -29 45
-25 24 -37 29 -78 28 -26 0 -58 -5 -70 -11z"/>
<path d="M3310 1650 l0 -140 35 0 35 0 0 140 0 140 -35 0 -35 0 0 -140z"/>
<path d="M3450 1650 l0 -140 35 0 35 0 0 90 c0 84 2 93 26 116 19 20 31 24 52
19 44 -10 52 -31 52 -132 l0 -93 36 0 36 0 -4 111 c-3 111 -3 111 -36 140 -37
33 -95 39 -128 14 -25 -19 -34 -19 -34 0 0 10 -11 15 -35 15 l-35 0 0 -140z"/>
<path d="M3832 1770 c-61 -38 -79 -139 -36 -206 50 -75 189 -72 229 6 l16 30
-32 0 c-17 0 -42 -9 -56 -20 -33 -25 -54 -25 -87 1 -49 39 -36 48 77 51 l102
3 -3 33 c-3 48 -28 89 -62 107 -41 21 -108 19 -148 -5z m124 -55 c14 -14 22
-30 19 -35 -8 -13 -122 -13 -130 1 -10 16 35 59 62 59 13 0 35 -11 49 -25z"/>
</g>
</svg>
